<svg xmlns="http://www.w3.org/2000/svg" width="47" height="78" fill="none" viewBox="0 0 47 78"><g fill="#000" clip-path="url(#a)"><path d="M17.227 46.337h8.9c3.065 0 5.01-1.88 5.01-4.814 0-3.498-2.803-4.477-5.796-4.477h-8.114v9.29Zm0-12.3h7.106c4.036 0 5.682-1.467 5.682-4.287 0-3.724-2.616-4.25-5.682-4.25h-7.106v8.537Zm-3.55-11.547h9.682c2.356 0 5.458 0 7.066.977 1.757 1.054 3.139 2.972 3.139 5.606 0 2.857-1.494 5-3.962 6.017v.076c3.292.677 5.085 3.16 5.085 6.47 0 3.947-2.805 7.71-8.112 7.71H13.678V22.49Z"/><path d="M23.46 12.388C10.547 12.388.076 22.923.076 35.918c0 12.994 10.47 23.53 23.384 23.53S46.85 48.911 46.85 35.917c0-12.995-10.47-23.53-23.389-23.53Zm20.305 23.54c0 11.282-9.089 20.428-20.305 20.428S3.16 47.212 3.16 35.93c0-11.283 9.089-20.425 20.3-20.425 11.212 0 20.305 9.144 20.305 20.425M46.8 64.41H.126v3.087h46.676V64.41ZM44.074 60.544c.074-.17.176-.313.303-.44a1.404 1.404 0 0 1 .988-.399c.188 0 .374.032.547.105a1.398 1.398 0 0 1 .741.734c.078.17.113.357.113.556 0 .2-.035.388-.113.555-.07.174-.175.32-.303.447-.126.13-.271.224-.438.296-.172.07-.351.104-.547.104a1.377 1.377 0 0 1-.988-.4 1.44 1.44 0 0 1-.303-.447 1.315 1.315 0 0 1-.11-.555c0-.201.033-.386.11-.556Zm.232 1.029c.054.15.135.276.24.384a1.093 1.093 0 0 0 .818.342 1.113 1.113 0 0 0 .818-.342c.1-.107.182-.235.24-.384.06-.145.09-.303.09-.473 0-.169-.03-.325-.09-.47a1.155 1.155 0 0 0-.24-.379 1.124 1.124 0 0 0-.818-.342c-.165 0-.316.034-.453.092a1.114 1.114 0 0 0-.605.628c-.06.147-.088.299-.088.471 0 .173.029.328.088.473Zm1.147-1.288c.194 0 .336.038.429.114.094.08.142.195.142.354 0 .15-.044.254-.122.326a.585.585 0 0 1-.31.122l.467.721h-.27l-.445-.706h-.267v.706h-.256v-1.637h.634-.002Zm-.112.728c.057 0 .112-.003.164-.006a.427.427 0 0 0 .134-.03.229.229 0 0 0 .096-.081.274.274 0 0 0 .033-.153c0-.054-.009-.1-.032-.13a.192.192 0 0 0-.081-.074.32.32 0 0 0-.116-.04c-.044-.003-.084-.007-.128-.007h-.335v.521h.265ZM6.267 0v1.528H1.93V3.3h3.98v1.412H1.93v2.025h4.43v1.528H.122V0h6.144ZM8.905 2.28v.81h.023a2.34 2.34 0 0 1 .777-.719 2.1 2.1 0 0 1 1.041-.254c.391 0 .719.073 1.03.22.31.146.546.403.707.775.177-.262.415-.494.718-.695.303-.2.663-.3 1.076-.3.314 0 .607.038.875.116.268.076.498.2.69.37.193.17.342.392.45.665.107.274.16.604.16.99v4.005h-1.634v-3.39c0-.202-.007-.391-.022-.568a1.227 1.227 0 0 0-.126-.464.776.776 0 0 0-.306-.312c-.135-.078-.315-.116-.546-.116-.23 0-.417.044-.557.132a.965.965 0 0 0-.335.348c-.08.143-.134.305-.161.487-.027.181-.04.364-.04.548v3.334h-1.633V4.906c0-.177-.005-.354-.01-.526a1.48 1.48 0 0 0-.1-.48.753.753 0 0 0-.287-.355c-.135-.09-.332-.132-.593-.132-.077 0-.179.017-.304.052-.128.035-.25.1-.369.196-.12.096-.22.235-.304.417-.085.181-.126.419-.126.712v3.472H7.365V2.28h1.541-.001ZM21.186 7.027c.178-.109.325-.249.438-.423.11-.174.189-.376.236-.607.045-.231.07-.466.07-.706 0-.24-.026-.474-.076-.706a1.87 1.87 0 0 0-.247-.619 1.408 1.408 0 0 0-.443-.44 1.24 1.24 0 0 0-.662-.168c-.26 0-.492.056-.673.168-.18.11-.326.256-.438.434-.11.177-.19.381-.236.613a3.601 3.601 0 0 0 .004 1.423c.05.23.13.434.241.607.11.174.26.314.443.422.183.108.406.163.667.163.26 0 .492-.053.672-.163M19.06 2.28v.764h.023c.2-.324.453-.56.76-.706.305-.147.643-.22 1.012-.22.468 0 .87.09 1.207.267.337.177.617.413.84.706.223.293.387.634.496 1.025.106.39.16.797.16 1.221 0 .401-.054.787-.16 1.157a2.96 2.96 0 0 1-.49.984 2.423 2.423 0 0 1-.817.683c-.326.17-.707.255-1.144.255-.368 0-.708-.075-1.018-.226a1.94 1.94 0 0 1-.766-.665h-.022v2.836h-1.634v-8.08h1.553V2.28ZM25.952 2.28V3.39h.023c.077-.186.18-.356.31-.515a2.03 2.03 0 0 1 .45-.406c.168-.11.35-.198.54-.26a1.92 1.92 0 0 1 .599-.093c.108 0 .226.02.356.058v1.528a3.433 3.433 0 0 0-.276-.042 2.741 2.741 0 0 0-.31-.016c-.3 0-.554.05-.76.15-.207.101-.374.237-.5.41a1.633 1.633 0 0 0-.27.61c-.054.23-.08.483-.08.75v2.698H24.4V2.28h1.554-.002ZM32.263 3.681c-.195-.215-.492-.323-.891-.323-.26 0-.477.044-.65.133-.173.088-.31.198-.414.329-.104.131-.177.27-.218.416a1.87 1.87 0 0 0-.074.394h2.656c-.077-.417-.212-.734-.409-.949ZM30.417 6.83c.246.24.599.358 1.058.358.33 0 .614-.084.852-.248.238-.167.383-.342.436-.526h1.438c-.23.716-.583 1.232-1.057 1.538-.476.31-1.052.464-1.726.464-.469 0-.89-.075-1.266-.226a2.637 2.637 0 0 1-.955-.642 2.904 2.904 0 0 1-.604-.996 3.647 3.647 0 0 1-.214-1.273c0-.463.073-.864.218-1.25.146-.386.353-.718.621-1.002.269-.28.59-.503.961-.666a3.066 3.066 0 0 1 1.237-.243c.506 0 .947.098 1.323.296.376.197.685.462.926.793.24.332.415.71.523 1.134.107.426.145.87.115 1.332h-4.29c.022.532.156.918.401 1.157M36.645 6.777a.947.947 0 0 0 .282.312c.115.081.247.14.397.179.15.038.305.058.466.058.115 0 .236-.014.362-.042.126-.027.24-.07.345-.126a.805.805 0 0 0 .26-.232.605.605 0 0 0 .104-.364c0-.247-.164-.432-.49-.555-.325-.124-.78-.247-1.363-.371a8.323 8.323 0 0 1-.696-.19 2.367 2.367 0 0 1-.605-.29 1.405 1.405 0 0 1-.426-.452 1.283 1.283 0 0 1-.16-.666c0-.386.074-.703.224-.948.15-.247.347-.443.593-.584.245-.144.52-.243.827-.302.306-.058.621-.087.943-.087.321 0 .635.03.938.093.303.062.573.166.81.312.237.147.435.342.593.584.156.244.25.55.282.921h-1.553c-.023-.315-.143-.53-.356-.642a1.613 1.613 0 0 0-.76-.167c-.092 0-.192.006-.298.018a1.018 1.018 0 0 0-.293.075.618.618 0 0 0-.226.167.45.45 0 0 0-.09.296c0 .147.052.267.16.359.108.093.247.167.42.225.173.058.37.11.593.156.222.045.448.096.678.15.238.054.47.12.697.197.226.078.428.18.604.307.176.126.318.285.426.474.106.19.16.422.16.7 0 .393-.079.724-.235.99-.157.266-.362.48-.615.642a2.521 2.521 0 0 1-.868.341 5.034 5.034 0 0 1-2.008-.006 2.634 2.634 0 0 1-.88-.346 1.972 1.972 0 0 1-.633-.644c-.165-.265-.255-.599-.27-1.001h1.554c0 .177.036.329.109.457M44.894 5.48a2.558 2.558 0 0 1-.335.087c-.12.023-.243.043-.374.058a6.91 6.91 0 0 0-.392.058 3.234 3.234 0 0 0-.362.092c-.12.04-.222.091-.31.157a.746.746 0 0 0-.213.248.799.799 0 0 0-.08.383c0 .154.027.27.08.37.053.101.128.18.219.238.09.058.2.1.322.122.122.023.249.035.38.035.322 0 .57-.054.748-.161.176-.108.306-.238.391-.39.083-.148.136-.301.155-.455.02-.154.028-.277.028-.37v-.614a.761.761 0 0 1-.259.145m-3.228-2.32c.169-.255.384-.46.644-.613.261-.154.553-.264.88-.33.325-.065.654-.099.983-.099.298 0 .602.021.908.064.306.043.586.125.84.249.252.123.46.295.62.515.163.22.243.51.243.874v3.114c0 .271.015.529.046.776.03.247.083.431.162.555h-1.657a2.399 2.399 0 0 1-.115-.58c-.26.27-.567.46-.92.568a3.67 3.67 0 0 1-1.082.161c-.283 0-.547-.035-.793-.104a1.823 1.823 0 0 1-.644-.324 1.51 1.51 0 0 1-.432-.557 1.895 1.895 0 0 1-.156-.799c0-.338.06-.619.178-.839.12-.22.273-.395.46-.526.188-.13.402-.23.645-.295.24-.066.485-.118.73-.156.245-.038.488-.07.724-.093.238-.023.449-.058.634-.104.183-.045.329-.114.438-.202.107-.089.157-.219.15-.388a.875.875 0 0 0-.087-.422.643.643 0 0 0-.23-.243.884.884 0 0 0-.333-.116 2.659 2.659 0 0 0-.408-.029c-.323 0-.576.07-.76.21-.184.138-.29.37-.322.693h-1.634c.023-.386.119-.706.288-.96ZM4.58 72.918a1.496 1.496 0 0 0-.772-.622 1.53 1.53 0 0 0-.52-.09c-.33 0-.612.064-.843.192-.23.13-.418.302-.56.518a2.3 2.3 0 0 0-.316.74 3.723 3.723 0 0 0-.098.857c0 .294.033.558.098.823.067.267.172.508.316.722.144.213.33.384.56.512.23.128.513.194.843.194.45 0 .8-.138 1.053-.415.253-.276.408-.64.464-1.094h1.423c-.038.421-.133.801-.29 1.141a2.637 2.637 0 0 1-1.517 1.413c-.342.126-.72.188-1.132.188-.512 0-.97-.088-1.38-.268a2.945 2.945 0 0 1-1.035-.74 3.291 3.291 0 0 1-.646-1.107 4.081 4.081 0 0 1-.224-1.37c0-.49.076-.97.224-1.4.15-.43.365-.806.646-1.126.28-.32.626-.572 1.035-.753.41-.181.87-.273 1.38-.273.369 0 .717.053 1.045.16.327.107.621.264.88.467.26.206.473.457.641.759.168.302.275.647.318 1.037H4.75a1.249 1.249 0 0 0-.168-.467M9.748 74.12c-.16-.178-.402-.264-.726-.264a1.16 1.16 0 0 0-.53.108 1.02 1.02 0 0 0-.336.268.951.951 0 0 0-.177.34 1.49 1.49 0 0 0-.06.32h2.162c-.062-.34-.173-.596-.332-.773m-1.503 2.562c.2.195.486.293.86.293.269 0 .5-.069.693-.203.194-.136.312-.278.356-.428h1.17c-.186.584-.474 1.001-.86 1.253-.387.252-.857.377-1.405.377-.38 0-.725-.061-1.03-.183a2.139 2.139 0 0 1-.778-.523 2.32 2.32 0 0 1-.491-.81 2.993 2.993 0 0 1-.173-1.037c0-.377.059-.703.177-1.017.118-.316.287-.586.506-.816a2.37 2.37 0 0 1 .782-.541 2.502 2.502 0 0 1 1.007-.198c.412 0 .77.08 1.077.24.306.16.558.374.753.644.197.27.338.578.426.924.088.345.118.708.094 1.084H7.917c.018.433.127.747.327.943M13.096 72.979v.904h.02a1.68 1.68 0 0 1 .618-.75c.136-.09.283-.162.44-.212.156-.05.318-.076.486-.076.088 0 .185.015.29.047v1.243a2.44 2.44 0 0 0-.477-.047c-.244 0-.45.04-.618.122a1.08 1.08 0 0 0-.408.335c-.102.14-.175.306-.22.494a2.689 2.689 0 0 0-.064.613v2.196h-1.331v-4.872h1.264v.003ZM18.41 72.979v.895h-.974v2.412c0 .226.038.377.112.452.075.074.225.112.449.112a2.435 2.435 0 0 0 .412-.036v1.035c-.112.02-.238.032-.374.038a9.09 9.09 0 0 1-.403.01c-.207 0-.402-.014-.585-.043a1.333 1.333 0 0 1-.487-.165.865.865 0 0 1-.332-.35c-.082-.15-.121-.348-.121-.592v-2.873h-.806v-.895h.806v-1.46h1.33v1.46h.974ZM20.505 77.85h-1.33V72.98h1.33v4.872Zm-1.33-6.727h1.33v1.102h-1.33v-1.102ZM21.076 73.874v-.895h.796v-.377c0-.433.135-.788.403-1.064.268-.278.674-.415 1.217-.415.118 0 .236.005.356.015.118.01.233.017.347.023v.999a4.179 4.179 0 0 0-.486-.028c-.182 0-.311.042-.388.127-.08.084-.119.227-.119.428v.292h.917v.895h-.917v3.977h-1.329v-3.977h-.797ZM26.102 77.85h-1.329V72.98h1.33v4.872Zm-1.329-6.727h1.33v1.102h-1.33v-1.102ZM29.09 73.856a.928.928 0 0 0-.533.146c-.144.098-.261.223-.352.377-.09.154-.155.323-.192.507a2.689 2.689 0 0 0 0 1.089c.037.182.098.346.183.494.085.148.197.269.342.363a.934.934 0 0 0 .525.142c.318 0 .564-.09.735-.269.171-.178.279-.419.323-.72h1.283c-.088.646-.336 1.138-.748 1.478-.413.339-.94.51-1.583.51-.362 0-.694-.061-.997-.183a2.206 2.206 0 0 1-.773-.514 2.355 2.355 0 0 1-.497-.787 2.752 2.752 0 0 1-.177-1.003c0-.365.054-.728.164-1.051.109-.323.27-.604.482-.839.212-.234.47-.419.777-.55a2.61 2.61 0 0 1 1.049-.198c.288 0 .563.038.829.112.265.077.503.191.712.345.21.154.379.345.51.573.131.23.207.502.225.816h-1.302c-.088-.56-.415-.838-.983-.838M34.768 75.585a2.194 2.194 0 0 1-.272.07c-.097.02-.198.035-.304.047a5.721 5.721 0 0 0-.319.047c-.1.019-.198.045-.294.077a.844.844 0 0 0-.253.128.615.615 0 0 0-.172.201.647.647 0 0 0-.066.311c0 .127.022.22.066.302a.494.494 0 0 0 .178.192.73.73 0 0 0 .263.1c.1.018.203.027.309.027.262 0 .465-.044.609-.131a.88.88 0 0 0 .318-.316c.068-.124.11-.247.126-.374.015-.125.023-.225.023-.3v-.499a.589.589 0 0 1-.21.118m-2.627-1.89c.136-.207.312-.373.524-.498.212-.127.45-.215.715-.269a4.06 4.06 0 0 1 .802-.08c.244 0 .491.016.74.052.248.033.477.102.683.202.206.1.374.24.506.42.13.18.197.416.197.712v2.534c0 .22.012.43.038.631.026.202.068.352.13.452H35.13a1.952 1.952 0 0 1-.094-.472 1.712 1.712 0 0 1-.749.462c-.286.089-.58.133-.88.133a2.37 2.37 0 0 1-.646-.085 1.482 1.482 0 0 1-.524-.264 1.232 1.232 0 0 1-.352-.451 1.526 1.526 0 0 1-.127-.65c0-.278.048-.505.145-.683.097-.178.222-.322.375-.429.153-.108.327-.186.524-.24.197-.054.395-.097.596-.127.2-.032.397-.056.59-.075.192-.02.364-.047.514-.085a.913.913 0 0 0 .356-.165c.088-.072.13-.177.122-.316a.716.716 0 0 0-.07-.344.52.52 0 0 0-.186-.198.727.727 0 0 0-.272-.095 2.278 2.278 0 0 0-.331-.023c-.263 0-.469.057-.619.17-.15.112-.236.301-.262.565h-1.33c.02-.314.096-.575.234-.78M40.344 74.82a1.417 1.417 0 0 0-.192-.489 1.087 1.087 0 0 0-.352-.344 1.033 1.033 0 0 0-.542-.131c-.218 0-.403.044-.553.13-.15.09-.27.205-.36.35-.092.145-.157.31-.198.496a2.674 2.674 0 0 0 .005 1.145c.044.189.113.356.21.504.097.148.218.267.365.357a.98.98 0 0 0 .53.137c.218 0 .401-.044.547-.132a.992.992 0 0 0 .351-.354c.087-.146.15-.316.187-.503.037-.19.056-.383.056-.584 0-.201-.019-.395-.056-.58m.056 2.406c-.157.264-.361.455-.614.57a2.027 2.027 0 0 1-.856.175c-.363 0-.68-.07-.955-.212a1.933 1.933 0 0 1-.68-.575 2.583 2.583 0 0 1-.4-.833 3.559 3.559 0 0 1-.137-.98c0-.34.045-.642.136-.947.091-.305.226-.573.402-.805.179-.234.402-.42.67-.561.268-.142.58-.212.936-.212.288 0 .561.06.82.184.26.122.464.304.614.541h.018v-2.45h1.33v6.728h-1.265v-.623h-.02ZM45.29 75.585a2.265 2.265 0 0 1-.27.07c-.098.02-.2.035-.305.047-.106.014-.213.028-.319.047-.1.019-.198.045-.295.077a.844.844 0 0 0-.253.128.615.615 0 0 0-.173.201.647.647 0 0 0-.065.311c0 .127.021.22.065.302a.494.494 0 0 0 .179.192.73.73 0 0 0 .262.1c.1.018.203.027.31.027.261 0 .465-.044.607-.131a.88.88 0 0 0 .318-.316c.068-.124.11-.247.127-.374.016-.125.023-.225.023-.3v-.499a.575.575 0 0 1-.21.118Zm-2.626-1.89c.137-.207.312-.373.525-.498.212-.127.451-.215.715-.269.267-.053.533-.08.802-.08.244 0 .49.016.74.052.25.033.477.102.683.202.206.1.374.24.506.42.13.18.197.416.197.712v2.534c0 .22.012.43.038.631.024.202.068.352.13.452h-1.349a2.07 2.07 0 0 1-.094-.471 1.717 1.717 0 0 1-.75.462c-.286.088-.58.132-.88.132-.23 0-.447-.029-.646-.085a1.47 1.47 0 0 1-.524-.264 1.23 1.23 0 0 1-.352-.451 1.55 1.55 0 0 1-.126-.65c0-.278.049-.505.146-.683.097-.178.221-.322.374-.429.153-.108.328-.186.525-.24.197-.054.394-.097.593-.127.2-.032.396-.056.59-.075a3.58 3.58 0 0 0 .515-.085.913.913 0 0 0 .357-.165c.087-.072.127-.177.12-.316a.716.716 0 0 0-.069-.344.52.52 0 0 0-.186-.198.717.717 0 0 0-.272-.095 2.277 2.277 0 0 0-.332-.023c-.262 0-.468.057-.618.17-.15.112-.236.301-.262.565h-1.33c.019-.314.096-.575.234-.78"/></g><defs><clipPath id="a"><path fill="#fff" d="M0 0h47v78H0z"/></clipPath></defs></svg>