<svg xmlns="http://www.w3.org/2000/svg" viewBox="0 0 186.3 39.3"><defs><style>.cls-1{fill:#121216}</style></defs><title>Recurso 1</title><g id="Capa_2" data-name="Capa 2"><g id="Capa_1-2" data-name="Capa 1"><path d="M46.3 21.5H17.9a6.5 6.5 0 0 1-.4-2 5.3 5.3 0 0 1 .4-1.9h28.4a31.1 31.1 0 0 1 .4-3.2H16.2a8 8 0 0 0-2 5.2 7.5 7.5 0 0 0 2 5.2h30.5c-.2-1.2-.3-2.3-.4-3.3" class="cls-1"/><path d="M51.2 35.7H8.9a25.9 25.9 0 0 1 0-32.4h42.2A39.2 39.2 0 0 1 53.6.1H7.4a29.1 29.1 0 0 0 0 38.8h46.2a38.1 38.1 0 0 1-2.4-3.2" class="cls-1"/><path d="M47.7 28.6H13.4a15.1 15.1 0 0 1-3-9.1 15.3 15.3 0 0 1 3-9.1h34.3A30.5 30.5 0 0 1 49 7.2H11.9a18.4 18.4 0 0 0 0 24.6H49a30.5 30.5 0 0 1-1.3-3.2M65.8 15.1a6 6 0 0 1-1.5-4.5V.1H67v10.4a3.8 3.8 0 0 0 .9 2.8 4.8 4.8 0 0 0 5.6 0 3.8 3.8 0 0 0 .9-2.8V.1h2.7v10.6a6.1 6.1 0 0 1-1.5 4.5c-1 1-2.6 1.4-4.8 1.4s-4-.5-5-1.5ZM89.3 5.6a4.8 4.8 0 0 1 1.2 3.5v7.1h-2.6V9.6a3.7 3.7 0 0 0-.6-2.3 2.4 2.4 0 0 0-1.9-.7 2.9 2.9 0 0 0-2.1.8 3.2 3.2 0 0 0-.7 2.3v6.5H80V4.7h2.6V6a4.1 4.1 0 0 1 3.6-1.6 4.3 4.3 0 0 1 3.1 1.2ZM92.9 4.7h2.6v11.5h-2.6zM97.1 4.7h2.8l3.1 8.6 3.1-8.6h2.8l-4.4 11.5h-2.9ZM118.4 13a2.4 2.4 0 0 0 .2-.8h2.6a4.4 4.4 0 0 1-1.4 2.9 3.9 3.9 0 0 1-1.9 1 8.6 8.6 0 0 1-2.4.4 7.1 7.1 0 0 1-3.4-.8 5.2 5.2 0 0 1-2.1-2.3 6.7 6.7 0 0 1-.6-3 8.1 8.1 0 0 1 .1-1.6 7.4 7.4 0 0 1 .4-1.4 5 5 0 0 1 2-2.3 7.2 7.2 0 0 1 6.6 0 4.7 4.7 0 0 1 2 2.2A8.4 8.4 0 0 1 121 9a13.4 13.4 0 0 1 .1 2.1h-9.2a3.4 3.4 0 0 0 .4 1.6 2.5 2.5 0 0 0 1.1 1.2 3.8 3.8 0 0 0 1.9.4l1.4-.2 1-.5c.4-.1.5-.4.7-.6Zm-6-4.9a2 2 0 0 0-.3 1.1h6.5a2.7 2.7 0 0 0-.3-1.2 3.2 3.2 0 0 0-1.1-1.2 3.4 3.4 0 0 0-1.8-.4 3.3 3.3 0 0 0-3 1.7ZM130.2 4.6v2.3H129a2.9 2.9 0 0 0-2.3.9 4 4 0 0 0-.8 2.6v5.9h-2.6V4.7h2.6V6a3.5 3.5 0 0 1 3.1-1.5ZM133.3 16a3.5 3.5 0 0 1-1.7-1.7 3.8 3.8 0 0 1-.4-1.9h2.5a3.6 3.6 0 0 0 .2 1.1c.3.8 1.1 1.1 2.2 1.1s1.8-.3 2.1-.9a1.3 1.3 0 0 0 .1-.6 1.3 1.3 0 0 0-.1-.6l-.5-.6-.9-.4-1.5-.3a9.3 9.3 0 0 1-2.2-.8 2.9 2.9 0 0 1-1.3-1.4 2.7 2.7 0 0 1-.2-1.3 3.2 3.2 0 0 1 .3-1.4 3.6 3.6 0 0 1 1.5-1.5 5.4 5.4 0 0 1 2.7-.5 7.6 7.6 0 0 1 2.7.5 3.3 3.3 0 0 1 1.6 1.5 4.3 4.3 0 0 1 .3 1.7h-2.5a3.6 3.6 0 0 0-.2-1 1.6 1.6 0 0 0-.7-.7 2.2 2.2 0 0 0-1.2-.2c-1 0-1.6.3-1.8.8a.7.7 0 0 0-.1.5.7.7 0 0 0 .1.5.9.9 0 0 0 .6.6l.9.4 1.4.3a9.3 9.3 0 0 1 2.4.9 3.2 3.2 0 0 1 1.4 1.4 2.7 2.7 0 0 1 .2 1.3 3.7 3.7 0 0 1-.3 1.5 3.3 3.3 0 0 1-1.7 1.6 6.5 6.5 0 0 1-2.9.6 8.5 8.5 0 0 1-3-.5ZM143.2 4.7h2.6v11.5h-2.6zM159.5.1v16.1H157v-1.4a3.8 3.8 0 0 1-1.6 1.2 5.1 5.1 0 0 1-2.2.4 5.5 5.5 0 0 1-2.9-.8 4.6 4.6 0 0 1-1.8-2.1 8.8 8.8 0 0 1-.5-1.5 8.8 8.8 0 0 1-.2-1.7 7.9 7.9 0 0 1 .6-3.2 4.6 4.6 0 0 1 1.8-2.1 5.5 5.5 0 0 1 2.9-.8 5.4 5.4 0 0 1 2.2.4 4.8 4.8 0 0 1 1.6 1.2V.1Zm-2.5 10a4 4 0 0 0-.8-2.6 3 3 0 0 0-2.3-.9 2.9 2.9 0 0 0-1.7.4 2.5 2.5 0 0 0-1.1 1.2 4.8 4.8 0 0 0-.4 2.2 4.8 4.8 0 0 0 .4 2.2 2.6 2.6 0 0 0 1.1 1.2 3.3 3.3 0 0 0 1.7.4 3 3 0 0 0 2.3-.9 3.5 3.5 0 0 0 .8-2.6ZM172.5 9.4v6.8h-2.6v-1.3a4.7 4.7 0 0 1-3.9 1.6 6.7 6.7 0 0 1-2.6-.5 2.8 2.8 0 0 1-1.5-1.5 4 4 0 0 1-.3-1.5 3.3 3.3 0 0 1 .3-1.5 3.2 3.2 0 0 1 2-1.8 12 12 0 0 1 3.6-.5h2.4v-1a1.4 1.4 0 0 0-.2-.6c-.3-.8-1.1-1.1-2.4-1.1a3.8 3.8 0 0 0-1.6.3 1.8 1.8 0 0 0-.9.8 2.4 2.4 0 0 0-.2.8H162a4.3 4.3 0 0 1 .3-1.7c.7-1.5 2.3-2.3 4.9-2.3a6.8 6.8 0 0 1 3.1.6 3.3 3.3 0 0 1 1.7 1.8 4.8 4.8 0 0 1 .5 2.6Zm-2.6 1.8h-2.2l-2.1.2a1.4 1.4 0 0 0-1.1.8 1.5 1.5 0 0 0-.1.7 1.5 1.5 0 0 0 .1.7 1.4 1.4 0 0 0 .8.7 3.2 3.2 0 0 0 1.4.2 3.6 3.6 0 0 0 1.9-.4 2.5 2.5 0 0 0 1.1-1.2 7 7 0 0 0 .2-1.7ZM186.2.1v16.1h-2.5v-1.4a3.8 3.8 0 0 1-1.6 1.2 5.1 5.1 0 0 1-2.2.4 5.5 5.5 0 0 1-2.9-.8 4.6 4.6 0 0 1-1.8-2.1 8.8 8.8 0 0 1-.5-1.5 8.8 8.8 0 0 1-.2-1.7 7.9 7.9 0 0 1 .6-3.2 4.6 4.6 0 0 1 1.8-2.1 5.5 5.5 0 0 1 2.9-.8 5.4 5.4 0 0 1 2.2.4 4.8 4.8 0 0 1 1.6 1.2V.1Zm-2.6 10a4 4 0 0 0-.8-2.6 3 3 0 0 0-2.3-.9 2.9 2.9 0 0 0-1.7.4 2.5 2.5 0 0 0-1.1 1.2 4.8 4.8 0 0 0-.4 2.2 4.8 4.8 0 0 0 .4 2.2 2.6 2.6 0 0 0 1.1 1.2 3.3 3.3 0 0 0 1.7.4 3 3 0 0 0 2.3-.9 3.5 3.5 0 0 0 .8-2.6ZM67.5 38.1a6.3 6.3 0 0 1-2.7-3.1 10.1 10.1 0 0 1-.8-4.5 12.6 12.6 0 0 1 .8-4.6 7.4 7.4 0 0 1 2.7-3.1 8.7 8.7 0 0 1 4.4-1.1 9.4 9.4 0 0 1 3 .5 5.9 5.9 0 0 1 2.3 1.4 4.8 4.8 0 0 1 1.4 2 9.9 9.9 0 0 1 .6 2.6h-2.8a4.8 4.8 0 0 0-1.2-2.9 5.5 5.5 0 0 0-6-.4 4.5 4.5 0 0 0-1.7 1.9 7.5 7.5 0 0 0-.5 1.6 12.5 12.5 0 0 0-.2 2.1 13.4 13.4 0 0 0 .1 2.1 7.5 7.5 0 0 0 .5 1.6 3.9 3.9 0 0 0 1.7 1.9 5.4 5.4 0 0 0 2.7.7 5.8 5.8 0 0 0 1.9-.3 5.3 5.3 0 0 0 1.5-.8 3.7 3.7 0 0 0 1.2-2.9h2.8a7.5 7.5 0 0 1-.5 2.6 4.8 4.8 0 0 1-1.4 2 6.3 6.3 0 0 1-2.4 1.4 9.4 9.4 0 0 1-3 .5 9.9 9.9 0 0 1-4.4-1.2ZM83.7 38.2a4.5 4.5 0 0 1-2-2.3 6.5 6.5 0 0 1-.6-2.9 7.3 7.3 0 0 1 .6-3 5 5 0 0 1 2-2.3 7.2 7.2 0 0 1 6.6 0 4.5 4.5 0 0 1 2 2.3 7.8 7.8 0 0 1 0 6 5 5 0 0 1-2 2.3 6.7 6.7 0 0 1-3.3.8 6 6 0 0 1-3.3-.9Zm5.1-1.8a3.2 3.2 0 0 0 1.1-1.2 6.2 6.2 0 0 0 .4-2.2 4.3 4.3 0 0 0-.4-2.2 2.5 2.5 0 0 0-1.1-1.2 4.2 4.2 0 0 0-3.6 0 3.2 3.2 0 0 0-1.1 1.2 4.6 4.6 0 0 0-.4 2.2 4.8 4.8 0 0 0 .4 2.2 2.5 2.5 0 0 0 1.1 1.2 3.4 3.4 0 0 0 1.8.4 2.4 2.4 0 0 0 1.8-.4ZM104.5 28.2a4.8 4.8 0 0 1 1.2 3.5v7.1h-2.6v-6.6a3.7 3.7 0 0 0-.6-2.3 2.4 2.4 0 0 0-1.9-.7 2.9 2.9 0 0 0-2.1.8 3.2 3.2 0 0 0-.7 2.3v6.5h-2.6V27.3h2.6v1.3a4.1 4.1 0 0 1 3.6-1.6 4 4 0 0 1 3.1 1.2ZM109.9 38.1a3.9 3.9 0 0 1-.9-2.9v-5.8h-1.8v-2.1h1.8v-4.7h2.6v4.7h3.3v2.1h-3.3v5.4a2.1 2.1 0 0 0 .4 1.5 1.8 1.8 0 0 0 1.4.5l1.4-.2v2.2a8.2 8.2 0 0 1-2.2.2 3.7 3.7 0 0 1-2.7-.9ZM117.3 27.3h2.6v11.5h-2.6zM132.1 28.2a4.8 4.8 0 0 1 1.2 3.5v7.1h-2.6v-6.6a3.7 3.7 0 0 0-.6-2.3 2.4 2.4 0 0 0-1.9-.7 2.9 2.9 0 0 0-2.1.8 3.2 3.2 0 0 0-.7 2.3v6.5h-2.6V27.3h2.6v1.3A4.1 4.1 0 0 1 129 27a4 4 0 0 1 3.1 1.2ZM144.3 35.6a2.4 2.4 0 0 0 .2-.8h2.6a4.4 4.4 0 0 1-1.4 2.9 3.9 3.9 0 0 1-1.9 1 8.6 8.6 0 0 1-2.4.4 7.1 7.1 0 0 1-3.4-.8 5.2 5.2 0 0 1-2.1-2.3 6.7 6.7 0 0 1-.6-3 8.1 8.1 0 0 1 .1-1.6 7.4 7.4 0 0 1 .4-1.4 5 5 0 0 1 2-2.3 7.2 7.2 0 0 1 6.6 0 4.7 4.7 0 0 1 2 2.2 8.4 8.4 0 0 1 .5 1.7 13.4 13.4 0 0 1 .1 2.1h-9.2a3.4 3.4 0 0 0 .4 1.6 2.5 2.5 0 0 0 1.1 1.2 3.8 3.8 0 0 0 1.9.4l1.4-.2a3.1 3.1 0 0 0 1-.5c.4-.1.5-.3.7-.6Zm-6-4.9a2 2 0 0 0-.3 1.1h6.5a2.7 2.7 0 0 0-.3-1.2 3.2 3.2 0 0 0-1.1-1.2 3.4 3.4 0 0 0-1.8-.4 3.1 3.1 0 0 0-3 1.7ZM158.8 28.2a4.8 4.8 0 0 1 1.2 3.5v7.1h-2.6v-6.6a3.7 3.7 0 0 0-.6-2.3 2.4 2.4 0 0 0-1.9-.7 2.9 2.9 0 0 0-2.1.8 3.2 3.2 0 0 0-.7 2.3v6.5h-2.6V27.3h2.6v1.3a4.1 4.1 0 0 1 3.6-1.6 4 4 0 0 1 3.1 1.2ZM164.2 38.1a3.9 3.9 0 0 1-.9-2.9v-5.8h-1.8v-2.1h1.8v-4.7h2.6v4.7h3.3v2.1h-3.3v5.4a2.1 2.1 0 0 0 .4 1.5 1.8 1.8 0 0 0 1.4.5l1.4-.2v2.2a8.2 8.2 0 0 1-2.2.2 3.7 3.7 0 0 1-2.7-.9ZM181.6 32v6.7H179v-1.3a4.7 4.7 0 0 1-3.9 1.6 6.7 6.7 0 0 1-2.6-.5A2.8 2.8 0 0 1 171 37a4 4 0 0 1-.3-1.5 3.3 3.3 0 0 1 .3-1.5 3.2 3.2 0 0 1 2-1.8 12 12 0 0 1 3.6-.5h2.4v-1a1.4 1.4 0 0 0-.2-.6c-.3-.8-1.1-1.1-2.4-1.1a3.8 3.8 0 0 0-1.6.3 1.8 1.8 0 0 0-.9.8 2.4 2.4 0 0 0-.2.8h-2.6a4.3 4.3 0 0 1 .3-1.7c.7-1.5 2.3-2.3 4.9-2.3a6.8 6.8 0 0 1 3.1.6 3.3 3.3 0 0 1 1.7 1.8 5.4 5.4 0 0 1 .5 2.7Zm-2.6 1.8h-2.2l-2.1.2a1.4 1.4 0 0 0-1.1.8 2.5 2.5 0 0 0 0 1.4 1.4 1.4 0 0 0 .8.7 3.2 3.2 0 0 0 1.4.2 3.6 3.6 0 0 0 1.9-.4 2.5 2.5 0 0 0 1.1-1.2 7 7 0 0 0 .2-1.7ZM183.7 22.6h2.6v16.2h-2.6Z" class="cls-1"/><circle cx="94.2" cy="1.5" r="1.5" class="cls-1"/><circle cx="118.6" cy="24" r="1.5" class="cls-1"/><circle cx="144.5" cy="1.5" r="1.5" class="cls-1"/></g></g></svg>